<?xml version="1.0" encoding="utf-8" standalone="no"?>
<!DOCTYPE svg PUBLIC "-//W3C//DTD SVG 1.1//EN"
  "http://www.w3.org/Graphics/SVG/1.1/DTD/svg11.dtd">
<svg xmlns:xlink="http://www.w3.org/1999/xlink" width="864pt" height="360pt" viewBox="0 0 864 360" xmlns="http://www.w3.org/2000/svg" version="1.1">
 <metadata>
  <rdf:RDF xmlns:dc="http://purl.org/dc/elements/1.1/" xmlns:cc="http://creativecommons.org/ns#" xmlns:rdf="http://www.w3.org/1999/02/22-rdf-syntax-ns#">
   <cc:Work>
    <dc:type rdf:resource="http://purl.org/dc/dcmitype/StillImage"/>
    <dc:date>2026-05-17T20:21:23.743197</dc:date>
    <dc:format>image/svg+xml</dc:format>
    <dc:creator>
     <cc:Agent>
      <dc:title>Matplotlib v3.10.9, https://matplotlib.org/</dc:title>
     </cc:Agent>
    </dc:creator>
   </cc:Work>
  </rdf:RDF>
 </metadata>
 <defs>
  <style type="text/css">*{stroke-linejoin: round; stroke-linecap: butt}</style>
 </defs>
 <g id="figure_1">
  <g id="patch_1">
   <path d="M 0 360 
L 864 360 
L 864 0 
L 0 0 
L 0 360 
z
" style="fill: none; opacity: 0"/>
  </g>
  <g id="axes_1">
   <g id="patch_2">
    <path d="M 108 320.4 
L 777.6 320.4 
L 777.6 43.2 
L 108 43.2 
L 108 320.4 
z
" style="fill: none; opacity: 0"/>
   </g>
   <g id="matplotlib.axis_1">
    <g id="xtick_1">
     <g id="line2d_1">
      <path d="M 194.184424 320.4 
L 194.184424 43.2 
" clip-path="url(#pd81025001f)" style="fill: none; stroke-dasharray: 5.12,1.28,0.8,1.28; stroke-dashoffset: 0; stroke: #b0b0b0; stroke-width: 0.8"/>
     </g>
     <g id="line2d_2">
      <defs>
       <path id="m8e9ad1023e" d="M 0 0 
L 0 3.5 
" style="stroke: #a9a9a9; stroke-width: 0.8"/>
      </defs>
      <g>
       <use xlink:href="#m8e9ad1023e" x="194.184424" y="320.4" style="fill: #a9a9a9; stroke: #a9a9a9; stroke-width: 0.8"/>
      </g>
     </g>
     <g id="text_1">
      <!-- 2022 -->
      <g style="fill: #a9a9a9" transform="translate(181.459424 334.998438) scale(0.1 -0.1)">
       <defs>
        <path id="DejaVuSans-32" d="M 1228 531 
L 3431 531 
L 3431 0 
L 469 0 
L 469 531 
Q 828 903 1448 1529 
Q 2069 2156 2228 2338 
Q 2531 2678 2651 2914 
Q 2772 3150 2772 3378 
Q 2772 3750 2511 3984 
Q 2250 4219 1831 4219 
Q 1534 4219 1204 4116 
Q 875 4013 500 3803 
L 500 4441 
Q 881 4594 1212 4672 
Q 1544 4750 1819 4750 
Q 2544 4750 2975 4387 
Q 3406 4025 3406 3419 
Q 3406 3131 3298 2873 
Q 3191 2616 2906 2266 
Q 2828 2175 2409 1742 
Q 1991 1309 1228 531 
z
" transform="scale(0.015625)"/>
        <path id="DejaVuSans-30" d="M 2034 4250 
Q 1547 4250 1301 3770 
Q 1056 3291 1056 2328 
Q 1056 1369 1301 889 
Q 1547 409 2034 409 
Q 2525 409 2770 889 
Q 3016 1369 3016 2328 
Q 3016 3291 2770 3770 
Q 2525 4250 2034 4250 
z
M 2034 4750 
Q 2819 4750 3233 4129 
Q 3647 3509 3647 2328 
Q 3647 1150 3233 529 
Q 2819 -91 2034 -91 
Q 1250 -91 836 529 
Q 422 1150 422 2328 
Q 422 3509 836 4129 
Q 1250 4750 2034 4750 
z
" transform="scale(0.015625)"/>
       </defs>
       <use xlink:href="#DejaVuSans-32"/>
       <use xlink:href="#DejaVuSans-30" transform="translate(63.623047 0)"/>
       <use xlink:href="#DejaVuSans-32" transform="translate(127.246094 0)"/>
       <use xlink:href="#DejaVuSans-32" transform="translate(190.869141 0)"/>
      </g>
     </g>
    </g>
    <g id="xtick_2">
     <g id="line2d_3">
      <path d="M 320.56978 320.4 
L 320.56978 43.2 
" clip-path="url(#pd81025001f)" style="fill: none; stroke-dasharray: 5.12,1.28,0.8,1.28; stroke-dashoffset: 0; stroke: #b0b0b0; stroke-width: 0.8"/>
     </g>
     <g id="line2d_4">
      <g>
       <use xlink:href="#m8e9ad1023e" x="320.56978" y="320.4" style="fill: #a9a9a9; stroke: #a9a9a9; stroke-width: 0.8"/>
      </g>
     </g>
     <g id="text_2">
      <!-- 2023 -->
      <g style="fill: #a9a9a9" transform="translate(307.84478 334.998438) scale(0.1 -0.1)">
       <defs>
        <path id="DejaVuSans-33" d="M 2597 2516 
Q 3050 2419 3304 2112 
Q 3559 1806 3559 1356 
Q 3559 666 3084 287 
Q 2609 -91 1734 -91 
Q 1441 -91 1130 -33 
Q 819 25 488 141 
L 488 750 
Q 750 597 1062 519 
Q 1375 441 1716 441 
Q 2309 441 2620 675 
Q 2931 909 2931 1356 
Q 2931 1769 2642 2001 
Q 2353 2234 1838 2234 
L 1294 2234 
L 1294 2753 
L 1863 2753 
Q 2328 2753 2575 2939 
Q 2822 3125 2822 3475 
Q 2822 3834 2567 4026 
Q 2313 4219 1838 4219 
Q 1578 4219 1281 4162 
Q 984 4106 628 3988 
L 628 4550 
Q 988 4650 1302 4700 
Q 1616 4750 1894 4750 
Q 2613 4750 3031 4423 
Q 3450 4097 3450 3541 
Q 3450 3153 3228 2886 
Q 3006 2619 2597 2516 
z
" transform="scale(0.015625)"/>
       </defs>
       <use xlink:href="#DejaVuSans-32"/>
       <use xlink:href="#DejaVuSans-30" transform="translate(63.623047 0)"/>
       <use xlink:href="#DejaVuSans-32" transform="translate(127.246094 0)"/>
       <use xlink:href="#DejaVuSans-33" transform="translate(190.869141 0)"/>
      </g>
     </g>
    </g>
    <g id="xtick_3">
     <g id="line2d_5">
      <path d="M 446.955135 320.4 
L 446.955135 43.2 
" clip-path="url(#pd81025001f)" style="fill: none; stroke-dasharray: 5.12,1.28,0.8,1.28; stroke-dashoffset: 0; stroke: #b0b0b0; stroke-width: 0.8"/>
     </g>
     <g id="line2d_6">
      <g>
       <use xlink:href="#m8e9ad1023e" x="446.955135" y="320.4" style="fill: #a9a9a9; stroke: #a9a9a9; stroke-width: 0.8"/>
      </g>
     </g>
     <g id="text_3">
      <!-- 2024 -->
      <g style="fill: #a9a9a9" transform="translate(434.230135 334.998438) scale(0.1 -0.1)">
       <defs>
        <path id="DejaVuSans-34" d="M 2419 4116 
L 825 1625 
L 2419 1625 
L 2419 4116 
z
M 2253 4666 
L 3047 4666 
L 3047 1625 
L 3713 1625 
L 3713 1100 
L 3047 1100 
L 3047 0 
L 2419 0 
L 2419 1100 
L 313 1100 
L 313 1709 
L 2253 4666 
z
" transform="scale(0.015625)"/>
       </defs>
       <use xlink:href="#DejaVuSans-32"/>
       <use xlink:href="#DejaVuSans-30" transform="translate(63.623047 0)"/>
       <use xlink:href="#DejaVuSans-32" transform="translate(127.246094 0)"/>
       <use xlink:href="#DejaVuSans-34" transform="translate(190.869141 0)"/>
      </g>
     </g>
    </g>
    <g id="xtick_4">
     <g id="line2d_7">
      <path d="M 573.686751 320.4 
L 573.686751 43.2 
" clip-path="url(#pd81025001f)" style="fill: none; stroke-dasharray: 5.12,1.28,0.8,1.28; stroke-dashoffset: 0; stroke: #b0b0b0; stroke-width: 0.8"/>
     </g>
     <g id="line2d_8">
      <g>
       <use xlink:href="#m8e9ad1023e" x="573.686751" y="320.4" style="fill: #a9a9a9; stroke: #a9a9a9; stroke-width: 0.8"/>
      </g>
     </g>
     <g id="text_4">
      <!-- 2025 -->
      <g style="fill: #a9a9a9" transform="translate(560.961751 334.998438) scale(0.1 -0.1)">
       <defs>
        <path id="DejaVuSans-35" d="M 691 4666 
L 3169 4666 
L 3169 4134 
L 1269 4134 
L 1269 2991 
Q 1406 3038 1543 3061 
Q 1681 3084 1819 3084 
Q 2600 3084 3056 2656 
Q 3513 2228 3513 1497 
Q 3513 744 3044 326 
Q 2575 -91 1722 -91 
Q 1428 -91 1123 -41 
Q 819 9 494 109 
L 494 744 
Q 775 591 1075 516 
Q 1375 441 1709 441 
Q 2250 441 2565 725 
Q 2881 1009 2881 1497 
Q 2881 1984 2565 2268 
Q 2250 2553 1709 2553 
Q 1456 2553 1204 2497 
Q 953 2441 691 2322 
L 691 4666 
z
" transform="scale(0.015625)"/>
       </defs>
       <use xlink:href="#DejaVuSans-32"/>
       <use xlink:href="#DejaVuSans-30" transform="translate(63.623047 0)"/>
       <use xlink:href="#DejaVuSans-32" transform="translate(127.246094 0)"/>
       <use xlink:href="#DejaVuSans-35" transform="translate(190.869141 0)"/>
      </g>
     </g>
    </g>
    <g id="xtick_5">
     <g id="line2d_9">
      <path d="M 700.072107 320.4 
L 700.072107 43.2 
" clip-path="url(#pd81025001f)" style="fill: none; stroke-dasharray: 5.12,1.28,0.8,1.28; stroke-dashoffset: 0; stroke: #b0b0b0; stroke-width: 0.8"/>
     </g>
     <g id="line2d_10">
      <g>
       <use xlink:href="#m8e9ad1023e" x="700.072107" y="320.4" style="fill: #a9a9a9; stroke: #a9a9a9; stroke-width: 0.8"/>
      </g>
     </g>
     <g id="text_5">
      <!-- 2026 -->
      <g style="fill: #a9a9a9" transform="translate(687.347107 334.998438) scale(0.1 -0.1)">
       <defs>
        <path id="DejaVuSans-36" d="M 2113 2584 
Q 1688 2584 1439 2293 
Q 1191 2003 1191 1497 
Q 1191 994 1439 701 
Q 1688 409 2113 409 
Q 2538 409 2786 701 
Q 3034 994 3034 1497 
Q 3034 2003 2786 2293 
Q 2538 2584 2113 2584 
z
M 3366 4563 
L 3366 3988 
Q 3128 4100 2886 4159 
Q 2644 4219 2406 4219 
Q 1781 4219 1451 3797 
Q 1122 3375 1075 2522 
Q 1259 2794 1537 2939 
Q 1816 3084 2150 3084 
Q 2853 3084 3261 2657 
Q 3669 2231 3669 1497 
Q 3669 778 3244 343 
Q 2819 -91 2113 -91 
Q 1303 -91 875 529 
Q 447 1150 447 2328 
Q 447 3434 972 4092 
Q 1497 4750 2381 4750 
Q 2619 4750 2861 4703 
Q 3103 4656 3366 4563 
z
" transform="scale(0.015625)"/>
       </defs>
       <use xlink:href="#DejaVuSans-32"/>
       <use xlink:href="#DejaVuSans-30" transform="translate(63.623047 0)"/>
       <use xlink:href="#DejaVuSans-32" transform="translate(127.246094 0)"/>
       <use xlink:href="#DejaVuSans-36" transform="translate(190.869141 0)"/>
      </g>
     </g>
    </g>
   </g>
   <g id="matplotlib.axis_2">
    <g id="ytick_1">
     <g id="line2d_11">
      <path d="M 108 307.828144 
L 777.6 307.828144 
" clip-path="url(#pd81025001f)" style="fill: none; stroke-dasharray: 5.12,1.28,0.8,1.28; stroke-dashoffset: 0; stroke: #b0b0b0; stroke-width: 0.8"/>
     </g>
     <g id="line2d_12">
      <defs>
       <path id="mbd9fc7ec76" d="M 0 0 
L -3.5 0 
" style="stroke: #a9a9a9; stroke-width: 0.8"/>
      </defs>
      <g>
       <use xlink:href="#mbd9fc7ec76" x="108" y="307.828144" style="fill: #a9a9a9; stroke: #a9a9a9; stroke-width: 0.8"/>
      </g>
     </g>
     <g id="text_6">
      <!-- 0 -->
      <g style="fill: #a9a9a9" transform="translate(94.6375 311.627363) scale(0.1 -0.1)">
       <use xlink:href="#DejaVuSans-30"/>
      </g>
     </g>
    </g>
    <g id="ytick_2">
     <g id="line2d_13">
      <path d="M 108 279.684298 
L 777.6 279.684298 
" clip-path="url(#pd81025001f)" style="fill: none; stroke-dasharray: 5.12,1.28,0.8,1.28; stroke-dashoffset: 0; stroke: #b0b0b0; stroke-width: 0.8"/>
     </g>
     <g id="line2d_14">
      <g>
       <use xlink:href="#mbd9fc7ec76" x="108" y="279.684298" style="fill: #a9a9a9; stroke: #a9a9a9; stroke-width: 0.8"/>
      </g>
     </g>
     <g id="text_7">
      <!-- 1000 -->
      <g style="fill: #a9a9a9" transform="translate(75.55 283.483516) scale(0.1 -0.1)">
       <defs>
        <path id="DejaVuSans-31" d="M 794 531 
L 1825 531 
L 1825 4091 
L 703 3866 
L 703 4441 
L 1819 4666 
L 2450 4666 
L 2450 531 
L 3481 531 
L 3481 0 
L 794 0 
L 794 531 
z
" transform="scale(0.015625)"/>
       </defs>
       <use xlink:href="#DejaVuSans-31"/>
       <use xlink:href="#DejaVuSans-30" transform="translate(63.623047 0)"/>
       <use xlink:href="#DejaVuSans-30" transform="translate(127.246094 0)"/>
       <use xlink:href="#DejaVuSans-30" transform="translate(190.869141 0)"/>
      </g>
     </g>
    </g>
    <g id="ytick_3">
     <g id="line2d_15">
      <path d="M 108 251.540451 
L 777.6 251.540451 
" clip-path="url(#pd81025001f)" style="fill: none; stroke-dasharray: 5.12,1.28,0.8,1.28; stroke-dashoffset: 0; stroke: #b0b0b0; stroke-width: 0.8"/>
     </g>
     <g id="line2d_16">
      <g>
       <use xlink:href="#mbd9fc7ec76" x="108" y="251.540451" style="fill: #a9a9a9; stroke: #a9a9a9; stroke-width: 0.8"/>
      </g>
     </g>
     <g id="text_8">
      <!-- 2000 -->
      <g style="fill: #a9a9a9" transform="translate(75.55 255.33967) scale(0.1 -0.1)">
       <use xlink:href="#DejaVuSans-32"/>
       <use xlink:href="#DejaVuSans-30" transform="translate(63.623047 0)"/>
       <use xlink:href="#DejaVuSans-30" transform="translate(127.246094 0)"/>
       <use xlink:href="#DejaVuSans-30" transform="translate(190.869141 0)"/>
      </g>
     </g>
    </g>
    <g id="ytick_4">
     <g id="line2d_17">
      <path d="M 108 223.396605 
L 777.6 223.396605 
" clip-path="url(#pd81025001f)" style="fill: none; stroke-dasharray: 5.12,1.28,0.8,1.28; stroke-dashoffset: 0; stroke: #b0b0b0; stroke-width: 0.8"/>
     </g>
     <g id="line2d_18">
      <g>
       <use xlink:href="#mbd9fc7ec76" x="108" y="223.396605" style="fill: #a9a9a9; stroke: #a9a9a9; stroke-width: 0.8"/>
      </g>
     </g>
     <g id="text_9">
      <!-- 3000 -->
      <g style="fill: #a9a9a9" transform="translate(75.55 227.195824) scale(0.1 -0.1)">
       <use xlink:href="#DejaVuSans-33"/>
       <use xlink:href="#DejaVuSans-30" transform="translate(63.623047 0)"/>
       <use xlink:href="#DejaVuSans-30" transform="translate(127.246094 0)"/>
       <use xlink:href="#DejaVuSans-30" transform="translate(190.869141 0)"/>
      </g>
     </g>
    </g>
    <g id="ytick_5">
     <g id="line2d_19">
      <path d="M 108 195.252759 
L 777.6 195.252759 
" clip-path="url(#pd81025001f)" style="fill: none; stroke-dasharray: 5.12,1.28,0.8,1.28; stroke-dashoffset: 0; stroke: #b0b0b0; stroke-width: 0.8"/>
     </g>
     <g id="line2d_20">
      <g>
       <use xlink:href="#mbd9fc7ec76" x="108" y="195.252759" style="fill: #a9a9a9; stroke: #a9a9a9; stroke-width: 0.8"/>
      </g>
     </g>
     <g id="text_10">
      <!-- 4000 -->
      <g style="fill: #a9a9a9" transform="translate(75.55 199.051977) scale(0.1 -0.1)">
       <use xlink:href="#DejaVuSans-34"/>
       <use xlink:href="#DejaVuSans-30" transform="translate(63.623047 0)"/>
       <use xlink:href="#DejaVuSans-30" transform="translate(127.246094 0)"/>
       <use xlink:href="#DejaVuSans-30" transform="translate(190.869141 0)"/>
      </g>
     </g>
    </g>
    <g id="ytick_6">
     <g id="line2d_21">
      <path d="M 108 167.108912 
L 777.6 167.108912 
" clip-path="url(#pd81025001f)" style="fill: none; stroke-dasharray: 5.12,1.28,0.8,1.28; stroke-dashoffset: 0; stroke: #b0b0b0; stroke-width: 0.8"/>
     </g>
     <g id="line2d_22">
      <g>
       <use xlink:href="#mbd9fc7ec76" x="108" y="167.108912" style="fill: #a9a9a9; stroke: #a9a9a9; stroke-width: 0.8"/>
      </g>
     </g>
     <g id="text_11">
      <!-- 5000 -->
      <g style="fill: #a9a9a9" transform="translate(75.55 170.908131) scale(0.1 -0.1)">
       <use xlink:href="#DejaVuSans-35"/>
       <use xlink:href="#DejaVuSans-30" transform="translate(63.623047 0)"/>
       <use xlink:href="#DejaVuSans-30" transform="translate(127.246094 0)"/>
       <use xlink:href="#DejaVuSans-30" transform="translate(190.869141 0)"/>
      </g>
     </g>
    </g>
    <g id="ytick_7">
     <g id="line2d_23">
      <path d="M 108 138.965066 
L 777.6 138.965066 
" clip-path="url(#pd81025001f)" style="fill: none; stroke-dasharray: 5.12,1.28,0.8,1.28; stroke-dashoffset: 0; stroke: #b0b0b0; stroke-width: 0.8"/>
     </g>
     <g id="line2d_24">
      <g>
       <use xlink:href="#mbd9fc7ec76" x="108" y="138.965066" style="fill: #a9a9a9; stroke: #a9a9a9; stroke-width: 0.8"/>
      </g>
     </g>
     <g id="text_12">
      <!-- 6000 -->
      <g style="fill: #a9a9a9" transform="translate(75.55 142.764285) scale(0.1 -0.1)">
       <use xlink:href="#DejaVuSans-36"/>
       <use xlink:href="#DejaVuSans-30" transform="translate(63.623047 0)"/>
       <use xlink:href="#DejaVuSans-30" transform="translate(127.246094 0)"/>
       <use xlink:href="#DejaVuSans-30" transform="translate(190.869141 0)"/>
      </g>
     </g>
    </g>
    <g id="ytick_8">
     <g id="line2d_25">
      <path d="M 108 110.82122 
L 777.6 110.82122 
" clip-path="url(#pd81025001f)" style="fill: none; stroke-dasharray: 5.12,1.28,0.8,1.28; stroke-dashoffset: 0; stroke: #b0b0b0; stroke-width: 0.8"/>
     </g>
     <g id="line2d_26">
      <g>
       <use xlink:href="#mbd9fc7ec76" x="108" y="110.82122" style="fill: #a9a9a9; stroke: #a9a9a9; stroke-width: 0.8"/>
      </g>
     </g>
     <g id="text_13">
      <!-- 7000 -->
      <g style="fill: #a9a9a9" transform="translate(75.55 114.620438) scale(0.1 -0.1)">
       <defs>
        <path id="DejaVuSans-37" d="M 525 4666 
L 3525 4666 
L 3525 4397 
L 1831 0 
L 1172 0 
L 2766 4134 
L 525 4134 
L 525 4666 
z
" transform="scale(0.015625)"/>
       </defs>
       <use xlink:href="#DejaVuSans-37"/>
       <use xlink:href="#DejaVuSans-30" transform="translate(63.623047 0)"/>
       <use xlink:href="#DejaVuSans-30" transform="translate(127.246094 0)"/>
       <use xlink:href="#DejaVuSans-30" transform="translate(190.869141 0)"/>
      </g>
     </g>
    </g>
    <g id="ytick_9">
     <g id="line2d_27">
      <path d="M 108 82.677373 
L 777.6 82.677373 
" clip-path="url(#pd81025001f)" style="fill: none; stroke-dasharray: 5.12,1.28,0.8,1.28; stroke-dashoffset: 0; stroke: #b0b0b0; stroke-width: 0.8"/>
     </g>
     <g id="line2d_28">
      <g>
       <use xlink:href="#mbd9fc7ec76" x="108" y="82.677373" style="fill: #a9a9a9; stroke: #a9a9a9; stroke-width: 0.8"/>
      </g>
     </g>
     <g id="text_14">
      <!-- 8000 -->
      <g style="fill: #a9a9a9" transform="translate(75.55 86.476592) scale(0.1 -0.1)">
       <defs>
        <path id="DejaVuSans-38" d="M 2034 2216 
Q 1584 2216 1326 1975 
Q 1069 1734 1069 1313 
Q 1069 891 1326 650 
Q 1584 409 2034 409 
Q 2484 409 2743 651 
Q 3003 894 3003 1313 
Q 3003 1734 2745 1975 
Q 2488 2216 2034 2216 
z
M 1403 2484 
Q 997 2584 770 2862 
Q 544 3141 544 3541 
Q 544 4100 942 4425 
Q 1341 4750 2034 4750 
Q 2731 4750 3128 4425 
Q 3525 4100 3525 3541 
Q 3525 3141 3298 2862 
Q 3072 2584 2669 2484 
Q 3125 2378 3379 2068 
Q 3634 1759 3634 1313 
Q 3634 634 3220 271 
Q 2806 -91 2034 -91 
Q 1263 -91 848 271 
Q 434 634 434 1313 
Q 434 1759 690 2068 
Q 947 2378 1403 2484 
z
M 1172 3481 
Q 1172 3119 1398 2916 
Q 1625 2713 2034 2713 
Q 2441 2713 2670 2916 
Q 2900 3119 2900 3481 
Q 2900 3844 2670 4047 
Q 2441 4250 2034 4250 
Q 1625 4250 1398 4047 
Q 1172 3844 1172 3481 
z
" transform="scale(0.015625)"/>
       </defs>
       <use xlink:href="#DejaVuSans-38"/>
       <use xlink:href="#DejaVuSans-30" transform="translate(63.623047 0)"/>
       <use xlink:href="#DejaVuSans-30" transform="translate(127.246094 0)"/>
       <use xlink:href="#DejaVuSans-30" transform="translate(190.869141 0)"/>
      </g>
     </g>
    </g>
    <g id="ytick_10">
     <g id="line2d_29">
      <path d="M 108 54.533527 
L 777.6 54.533527 
" clip-path="url(#pd81025001f)" style="fill: none; stroke-dasharray: 5.12,1.28,0.8,1.28; stroke-dashoffset: 0; stroke: #b0b0b0; stroke-width: 0.8"/>
     </g>
     <g id="line2d_30">
      <g>
       <use xlink:href="#mbd9fc7ec76" x="108" y="54.533527" style="fill: #a9a9a9; stroke: #a9a9a9; stroke-width: 0.8"/>
      </g>
     </g>
     <g id="text_15">
      <!-- 9000 -->
      <g style="fill: #a9a9a9" transform="translate(75.55 58.332746) scale(0.1 -0.1)">
       <defs>
        <path id="DejaVuSans-39" d="M 703 97 
L 703 672 
Q 941 559 1184 500 
Q 1428 441 1663 441 
Q 2288 441 2617 861 
Q 2947 1281 2994 2138 
Q 2813 1869 2534 1725 
Q 2256 1581 1919 1581 
Q 1219 1581 811 2004 
Q 403 2428 403 3163 
Q 403 3881 828 4315 
Q 1253 4750 1959 4750 
Q 2769 4750 3195 4129 
Q 3622 3509 3622 2328 
Q 3622 1225 3098 567 
Q 2575 -91 1691 -91 
Q 1453 -91 1209 -44 
Q 966 3 703 97 
z
M 1959 2075 
Q 2384 2075 2632 2365 
Q 2881 2656 2881 3163 
Q 2881 3666 2632 3958 
Q 2384 4250 1959 4250 
Q 1534 4250 1286 3958 
Q 1038 3666 1038 3163 
Q 1038 2656 1286 2365 
Q 1534 2075 1959 2075 
z
" transform="scale(0.015625)"/>
       </defs>
       <use xlink:href="#DejaVuSans-39"/>
       <use xlink:href="#DejaVuSans-30" transform="translate(63.623047 0)"/>
       <use xlink:href="#DejaVuSans-30" transform="translate(127.246094 0)"/>
       <use xlink:href="#DejaVuSans-30" transform="translate(190.869141 0)"/>
      </g>
     </g>
    </g>
   </g>
   <g id="line2d_31">
    <path d="M 138.436364 307.743712 
L 140.513931 307.546705 
L 140.860192 307.377842 
L 142.245237 307.180835 
L 143.630282 306.871253 
L 145.015327 306.646102 
L 146.054111 306.589815 
L 146.746634 306.308376 
L 147.092895 305.801787 
L 147.439156 305.548492 
L 147.785417 304.704177 
L 148.131679 304.647889 
L 151.594291 302.199375 
L 152.979336 301.495778 
L 153.325597 300.904758 
L 154.01812 300.341881 
L 154.710642 300.11673 
L 155.749426 299.947867 
L 157.826993 299.610141 
L 158.173255 299.441278 
L 160.597083 299.216127 
L 161.982128 298.850257 
L 164.752218 298.428099 
L 165.09848 298.231092 
L 165.444741 298.174805 
L 166.137263 297.92151 
L 168.561092 297.471208 
L 169.253615 297.246058 
L 172.369966 296.683181 
L 173.062488 296.514318 
L 174.447533 296.317311 
L 175.140056 296.09216 
L 175.486317 295.557427 
L 176.525101 295.107125 
L 177.563885 294.797543 
L 177.910146 294.600536 
L 178.602668 294.459817 
L 180.333975 294.009515 
L 181.372758 293.756221 
L 182.757803 293.390351 
L 183.104065 293.362207 
L 183.796587 293.024481 
L 184.142848 292.968193 
L 184.48911 292.771186 
L 188.990506 291.955015 
L 190.375551 291.307706 
L 191.068073 291.110699 
L 191.760596 290.801117 
L 192.453118 290.294528 
L 193.491902 290.069377 
L 197.993298 288.690328 
L 198.339559 288.634041 
L 199.724604 288.04302 
L 200.070866 287.986732 
L 200.763388 287.67715 
L 201.455911 287.649006 
L 202.494694 287.31128 
L 202.840956 287.31128 
L 203.187217 287.142417 
L 203.879739 287.057985 
L 204.226001 286.917266 
L 205.957307 286.832834 
L 206.303568 286.748403 
L 206.996091 286.354389 
L 208.034874 285.960375 
L 208.727397 285.566361 
L 209.766181 285.087916 
L 211.151226 284.38432 
L 211.497487 283.990306 
L 212.190009 282.808264 
L 213.228793 282.470538 
L 213.575054 282.1891 
L 214.613838 281.795086 
L 214.960099 281.429216 
L 215.998883 280.978914 
L 216.345144 280.781908 
L 218.422712 278.248961 
L 219.115234 277.911235 
L 220.500279 276.898057 
L 221.192802 276.391468 
L 221.539063 275.856734 
L 221.885324 274.984275 
L 222.231585 274.421398 
L 224.309153 272.704624 
L 225.347937 271.747733 
L 226.040459 270.818986 
L 226.732982 270.284253 
L 227.771765 269.580657 
L 228.118027 269.242931 
L 228.810549 269.01778 
L 229.849333 268.370471 
L 230.888117 267.610587 
L 232.273162 266.231539 
L 232.965684 265.921957 
L 233.658207 265.415367 
L 234.004468 265.218361 
L 234.350729 265.162073 
L 235.389513 264.542908 
L 235.735774 264.120751 
L 237.46708 263.107572 
L 237.813342 262.966853 
L 238.852125 262.178825 
L 244.046044 260.152468 
L 244.738567 259.448872 
L 245.77735 258.885995 
L 246.469873 258.40755 
L 247.162395 258.182399 
L 247.508657 257.929104 
L 247.854918 257.816529 
L 248.893702 257.056645 
L 250.971269 256.43748 
L 251.663791 255.987179 
L 252.702575 255.733884 
L 253.048836 255.649453 
L 254.08762 254.861425 
L 255.472665 254.439267 
L 256.165188 254.01711 
L 257.203971 253.594952 
L 258.242755 253.369801 
L 259.974061 252.722493 
L 261.705368 251.990753 
L 262.39789 251.906321 
L 263.782935 251.343444 
L 267.591809 249.288943 
L 268.284331 248.951217 
L 268.976854 248.613491 
L 269.669376 248.472772 
L 270.361899 248.02247 
L 271.054421 247.825463 
L 272.093205 247.375162 
L 273.47825 247.178155 
L 274.170773 246.784141 
L 274.517034 246.446415 
L 274.863295 245.770963 
L 276.24834 245.376949 
L 277.633385 244.701497 
L 280.749736 243.209873 
L 281.442259 243.04101 
L 282.481043 242.478133 
L 282.827304 242.421845 
L 284.55861 241.464954 
L 285.251132 240.986509 
L 286.289916 240.761358 
L 289.406267 239.635604 
L 290.791312 239.01644 
L 291.137574 238.735001 
L 291.483835 238.622426 
L 292.176357 238.200268 
L 293.907664 237.524816 
L 295.985231 235.920616 
L 296.331492 235.864329 
L 296.677754 235.245164 
L 297.024015 235.104445 
L 297.370276 234.794863 
L 297.716537 234.738575 
L 298.40906 234.26013 
L 299.101582 234.006835 
L 300.832889 232.852937 
L 303.602979 231.502033 
L 303.94924 230.854724 
L 304.641762 230.291847 
L 305.334285 230.010409 
L 305.680546 229.757114 
L 306.026807 229.672683 
L 306.71933 229.306813 
L 308.104375 228.575073 
L 308.796897 227.927764 
L 309.48942 227.3086 
L 310.181942 226.858298 
L 310.874465 226.21099 
L 311.566987 225.619969 
L 311.913249 225.451106 
L 312.605771 224.719366 
L 313.644555 224.212776 
L 314.337077 223.790619 
L 314.683339 223.678043 
L 315.0296 223.396605 
L 315.375861 223.340317 
L 318.492212 221.651686 
L 319.184735 221.454679 
L 320.56978 220.976234 
L 321.262302 220.497789 
L 322.647347 219.963056 
L 323.33987 219.512754 
L 324.032392 219.231316 
L 324.724915 218.696583 
L 325.417437 217.261246 
L 326.10996 216.416931 
L 327.148743 215.854054 
L 327.841266 215.544472 
L 328.187527 215.488184 
L 328.88005 215.150458 
L 330.611356 214.503149 
L 331.303878 214.024704 
L 332.342662 213.574403 
L 333.727707 212.701943 
L 334.073968 212.448649 
L 334.766491 211.773196 
L 335.805275 211.238463 
L 336.497797 210.816306 
L 337.882842 210.000134 
L 338.229103 209.915702 
L 338.575365 209.634264 
L 340.999193 208.789949 
L 341.345455 208.536654 
L 342.037977 208.311503 
L 345.846851 206.369578 
L 346.539373 205.806701 
L 347.231896 205.609694 
L 347.578157 205.271968 
L 347.924418 205.21568 
L 348.616941 204.652803 
L 350.348247 203.555193 
L 351.040769 203.330042 
L 351.387031 203.104892 
L 351.733292 203.048604 
L 353.810859 202.119857 
L 357.965994 200.768952 
L 359.004778 200.009069 
L 359.697301 199.615055 
L 361.082346 198.911459 
L 362.121129 198.179719 
L 362.813652 198.010855 
L 363.852436 197.335403 
L 366.968787 196.209649 
L 367.661309 195.956355 
L 369.046354 195.646772 
L 369.738877 195.421622 
L 371.470183 194.802457 
L 372.508967 194.464731 
L 373.201489 194.295868 
L 375.279057 193.901854 
L 375.971579 193.761135 
L 377.010363 193.50784 
L 377.356624 193.338977 
L 378.049147 193.198258 
L 378.741669 193.001251 
L 379.434192 192.691669 
L 379.780453 192.550949 
L 380.126714 192.550949 
L 385.320633 190.806031 
L 385.666894 190.412017 
L 387.744462 189.48327 
L 389.129507 188.976681 
L 389.475768 188.75153 
L 391.207074 188.216797 
L 391.553335 187.963502 
L 391.899597 187.879071 
L 392.245858 187.569488 
L 393.284642 187.344338 
L 393.977164 187.006612 
L 394.323425 186.55631 
L 405.057524 183.854501 
L 406.442569 183.404199 
L 407.827614 182.953898 
L 408.520137 182.644315 
L 409.212659 182.362877 
L 409.55892 182.109582 
L 411.290226 181.574849 
L 412.675271 180.927541 
L 414.060316 180.758678 
L 422.024325 177.634711 
L 423.755631 177.128122 
L 424.448154 176.762252 
L 425.486938 176.508957 
L 426.871983 175.298771 
L 429.295811 174.201161 
L 431.71964 173.103551 
L 432.758424 172.737681 
L 433.797208 172.202948 
L 436.567298 170.739468 
L 437.25982 170.401742 
L 437.606081 170.120304 
L 438.644865 169.670002 
L 440.02991 168.938262 
L 441.414955 168.375385 
L 443.838784 167.446638 
L 444.531306 167.362207 
L 444.877567 167.108912 
L 446.262612 166.827474 
L 446.955135 166.517891 
L 448.686441 165.645432 
L 453.187837 163.534644 
L 454.226621 163.168774 
L 454.572882 162.915479 
L 455.265405 162.831048 
L 455.611666 162.605897 
L 456.304189 162.493321 
L 460.113062 161.029841 
L 462.19063 160.410677 
L 463.229414 159.960375 
L 463.921936 159.566361 
L 465.306981 158.806478 
L 465.999504 158.637614 
L 466.345765 158.412464 
L 466.692026 158.356176 
L 468.423332 157.455573 
L 472.924729 155.682511 
L 473.27099 155.626223 
L 474.656035 154.922627 
L 475.348557 154.781908 
L 476.04108 154.35975 
L 477.426125 153.656154 
L 482.966305 151.517221 
L 483.658827 151.207639 
L 485.043872 149.997454 
L 486.082656 149.575296 
L 488.506485 148.336967 
L 488.852746 148.083672 
L 489.545268 147.886665 
L 490.237791 147.492651 
L 491.276575 147.239357 
L 497.855538 144.48126 
L 498.548061 144.171677 
L 500.625628 143.38365 
L 502.356935 142.483047 
L 503.049457 142.257896 
L 503.395718 141.92017 
L 504.434502 141.498012 
L 504.780763 141.441724 
L 506.165808 140.766272 
L 507.204592 140.428546 
L 508.243376 140.034532 
L 509.282159 139.72495 
L 509.628421 139.668662 
L 510.320943 139.274648 
L 510.667204 139.133929 
L 511.013466 138.852491 
L 512.052249 138.571052 
L 512.744772 138.289614 
L 513.437294 137.980031 
L 514.822339 137.38901 
L 517.246168 136.769846 
L 517.938691 136.488407 
L 522.093826 135.418941 
L 524.517654 133.927317 
L 524.863916 133.645879 
L 527.287744 132.857851 
L 527.980267 132.435694 
L 530.404096 131.563234 
L 531.442879 131.225508 
L 532.135402 130.831494 
L 532.827924 130.634487 
L 533.174186 130.43748 
L 533.866708 130.296761 
L 535.598014 129.48059 
L 536.290537 129.199151 
L 537.675582 128.636274 
L 538.021843 128.298548 
L 538.368104 128.24226 
L 539.753149 127.65124 
L 541.138194 127.28537 
L 541.484455 127.257226 
L 541.830717 127.088363 
L 542.523239 126.947644 
L 545.63959 125.962609 
L 546.332113 125.399732 
L 547.717158 124.58356 
L 548.755942 124.245834 
L 551.872293 122.669779 
L 552.218554 122.38834 
L 554.296122 121.769176 
L 554.988644 121.487737 
L 556.027428 121.121867 
L 556.373689 120.812285 
L 558.797518 119.911682 
L 559.836302 119.433237 
L 560.182563 119.405093 
L 560.875085 119.123654 
L 562.26013 118.50449 
L 565.03022 117.716462 
L 566.069004 117.238017 
L 570.5704 115.690105 
L 571.609184 115.267947 
L 573.34049 114.761358 
L 573.686751 114.733214 
L 574.725535 114.311057 
L 575.418058 114.142193 
L 575.764319 113.917043 
L 576.456841 113.804467 
L 580.611976 112.566138 
L 582.343283 112.059549 
L 582.689544 111.890686 
L 583.382066 111.806254 
L 585.113373 111.468528 
L 585.805895 111.130802 
L 586.498418 110.764932 
L 587.883463 110.31463 
L 592.384859 108.597856 
L 593.423643 108.231986 
L 595.154949 107.275095 
L 595.847471 107.190663 
L 598.2713 106.487067 
L 599.310084 106.261916 
L 602.080174 105.248738 
L 606.58157 103.475676 
L 607.274092 103.3631 
L 607.966615 103.222381 
L 608.312876 103.222381 
L 609.35166 102.884655 
L 611.082966 102.378066 
L 612.468011 101.927764 
L 617.315669 100.689435 
L 617.66193 100.43614 
L 619.046975 100.126558 
L 619.739497 99.816976 
L 621.817065 99.057092 
L 622.163326 99.000804 
L 622.855849 98.747509 
L 627.010984 97.649899 
L 629.088551 96.918159 
L 629.781074 96.861872 
L 632.204902 96.186419 
L 633.243686 95.820549 
L 633.936209 95.201385 
L 637.05256 93.963056 
L 637.745082 93.85048 
L 640.515172 92.921733 
L 641.553956 92.330713 
L 641.900217 92.246281 
L 642.246478 91.964843 
L 643.285262 91.65526 
L 644.324046 91.261246 
L 645.709091 90.613938 
L 646.401613 90.19178 
L 646.747875 90.107349 
L 647.440397 89.713335 
L 650.210487 88.700156 
L 650.556748 88.390574 
L 650.90301 88.334286 
L 651.595532 87.883985 
L 652.634316 87.574403 
L 654.019361 86.983382 
L 654.365622 86.955238 
L 656.096928 86.279786 
L 656.789451 86.139066 
L 657.481973 85.632477 
L 657.828235 85.632477 
L 659.21328 85.125888 
L 660.598325 84.844449 
L 661.98337 84.225285 
L 662.329631 84.225285 
L 664.75346 83.493545 
L 665.445982 82.930668 
L 668.562333 81.77677 
L 669.947378 81.439044 
L 672.371207 80.763592 
L 674.448774 80.031852 
L 675.833819 79.722269 
L 678.257648 79.018673 
L 678.950171 78.877954 
L 681.720261 77.836632 
L 682.412783 77.695912 
L 683.797828 77.442618 
L 684.490351 77.330042 
L 685.875396 76.767166 
L 686.567918 76.570159 
L 687.260441 76.457583 
L 688.645486 76.035426 
L 688.991747 76.035426 
L 689.684269 75.641412 
L 692.800621 74.797096 
L 702.149674 70.913245 
L 702.495935 70.688095 
L 702.842197 70.603663 
L 703.188458 70.378512 
L 703.534719 70.322225 
L 704.227242 69.900067 
L 706.304809 69.477909 
L 706.65107 69.224615 
L 710.459944 67.901854 
L 711.152467 67.535984 
L 712.537512 66.973107 
L 714.96134 66.297655 
L 715.653863 66.185079 
L 716.346385 66.100648 
L 718.077692 65.762922 
L 719.116475 65.200045 
L 719.462737 65.143757 
L 720.155259 64.834175 
L 721.194043 64.665312 
L 721.886565 64.327585 
L 727.080484 62.301229 
L 728.119268 62.047934 
L 730.196835 61.485057 
L 730.889358 61.456913 
L 733.313186 60.697029 
L 733.659448 60.415591 
L 734.005709 60.359303 
L 734.698231 60.049721 
L 735.044493 59.965289 
L 735.737015 59.571275 
L 739.545889 57.826357 
L 741.277195 57.319768 
L 741.623456 57.319768 
L 744.047285 56.588028 
L 745.086069 56.419165 
L 745.778591 56.137726 
L 747.163636 55.8 
L 747.163636 55.8 
" clip-path="url(#pd81025001f)" style="fill: none; stroke: #1f77b4; stroke-width: 1.5; stroke-linecap: square"/>
   </g>
   <g id="line2d_32">
    <path d="M 138.782625 307.8 
L 141.898976 307.715568 
L 144.669066 307.574849 
L 146.054111 307.574849 
L 146.746634 307.462274 
L 155.056904 306.871253 
L 157.826993 306.786822 
L 159.5583 306.730534 
L 164.059696 306.646102 
L 165.791002 306.589815 
L 168.907353 306.505383 
L 170.292398 306.477239 
L 173.755011 306.392808 
L 174.793795 306.280232 
L 177.910146 306.195801 
L 179.641452 306.139513 
L 181.71902 306.083225 
L 183.104065 305.942506 
L 186.220416 305.858075 
L 186.912938 305.801787 
L 188.297983 305.717355 
L 190.375551 305.632924 
L 191.760596 305.548492 
L 197.993298 305.126335 
L 200.417127 305.070047 
L 201.455911 304.957472 
L 203.187217 304.87304 
L 206.649829 304.676033 
L 210.112442 304.619745 
L 211.497487 304.479026 
L 213.228793 304.394595 
L 216.691406 304.028725 
L 218.768973 303.747286 
L 220.154018 303.690998 
L 222.924108 303.325128 
L 225.001675 303.268841 
L 226.040459 303.184409 
L 227.079243 303.099978 
L 245.084828 301.720929 
L 247.508657 301.636498 
L 248.893702 301.467635 
L 250.625008 301.383203 
L 252.702575 301.298771 
L 254.433881 301.21434 
L 255.818926 301.186196 
L 257.550233 301.129908 
L 258.242755 301.045477 
L 263.090413 300.961045 
L 263.782935 300.876614 
L 267.93807 300.792182 
L 271.054421 300.623319 
L 273.47825 300.538888 
L 275.209556 300.341881 
L 277.287124 300.257449 
L 278.325908 300.11673 
L 283.173565 300.032298 
L 284.55861 299.891579 
L 285.943655 299.863435 
L 286.982439 299.779004 
L 288.367484 299.638285 
L 291.830096 299.441278 
L 295.292709 299.356846 
L 298.40906 299.187983 
L 299.447844 299.159839 
L 300.140366 299.047264 
L 301.871672 298.990976 
L 302.564195 298.934688 
L 304.295501 298.850257 
L 305.680546 298.822113 
L 308.104375 298.737681 
L 317.107167 298.090373 
L 319.184735 298.005941 
L 320.916041 297.949654 
L 325.763698 297.865222 
L 326.456221 297.780791 
L 331.303878 297.696359 
L 334.766491 297.499352 
L 335.459013 297.471208 
L 336.151536 297.386777 
L 337.882842 297.302345 
L 339.614148 297.246058 
L 341.345455 297.161626 
L 343.076761 297.105338 
L 346.193112 297.020907 
L 348.270679 296.936475 
L 353.118337 296.852044 
L 356.927211 296.626893 
L 358.312256 296.570605 
L 359.351039 296.486174 
L 364.198697 296.401742 
L 366.276264 296.317311 
L 377.356624 296.232879 
L 380.126714 296.09216 
L 388.090723 296.007728 
L 388.783245 295.951441 
L 400.556128 295.867009 
L 402.287434 295.810721 
L 418.561713 295.72629 
L 419.946758 295.698146 
L 423.755631 295.613715 
L 424.794415 295.501139 
L 426.871983 295.416708 
L 429.295811 295.304132 
L 432.412163 295.219701 
L 434.143469 295.163413 
L 436.567298 295.078981 
L 438.298604 295.022694 
L 440.376171 294.938262 
L 441.414955 294.853831 
L 448.34018 294.769399 
L 450.417747 294.684968 
L 454.226621 294.600536 
L 456.65045 294.487961 
L 459.074279 294.431673 
L 459.766801 294.375385 
L 468.077071 294.290954 
L 471.539684 294.093947 
L 474.309774 294.009515 
L 475.348557 293.868796 
L 478.81117 293.784365 
L 480.542476 293.728077 
L 484.005088 293.643645 
L 485.736395 293.446638 
L 489.199007 293.362207 
L 489.89153 293.277775 
L 493.354142 293.193344 
L 495.085448 293.137056 
L 500.279367 293.052625 
L 502.356935 292.968193 
L 509.628421 292.883761 
L 510.320943 292.827474 
L 515.168601 292.743042 
L 516.553646 292.714898 
L 522.093826 292.630467 
L 524.517654 292.517891 
L 528.672789 292.43346 
L 530.404096 292.377172 
L 536.636798 292.320885 
L 537.675582 292.236453 
L 538.714365 292.152021 
L 539.753149 292.06759 
L 544.947068 291.983158 
L 547.024635 291.898727 
L 557.066212 291.814295 
L 560.182563 291.645432 
L 565.03022 291.561001 
L 566.415265 291.532857 
L 570.5704 291.448425 
L 572.301706 291.392138 
L 580.265715 291.307706 
L 582.343283 291.223275 
L 588.229724 291.138843 
L 589.96103 291.082555 
L 593.077381 290.998124 
L 595.50121 290.885548 
L 599.310084 290.801117 
L 601.733913 290.688541 
L 604.850264 290.632254 
L 605.542786 290.575966 
L 613.160534 290.491535 
L 615.238101 290.407103 
L 617.66193 290.322671 
L 619.393236 290.266384 
L 629.434812 290.181952 
L 631.51238 290.097521 
L 637.398821 290.013089 
L 639.130127 289.956801 
L 643.631523 289.87237 
L 645.709091 289.787938 
L 648.479181 289.703507 
L 650.556748 289.619075 
L 664.407198 289.534644 
L 666.831027 289.422068 
L 675.141297 289.337637 
L 676.526342 289.309493 
L 684.836612 289.225061 
L 686.567918 289.168774 
L 697.648278 289.084342 
L 699.033323 289.056198 
L 709.42116 288.971767 
L 711.152467 288.915479 
L 721.540304 288.831048 
L 723.617872 288.746616 
L 736.775799 288.662184 
L 738.507105 288.605897 
L 744.739808 288.521465 
L 746.124853 288.493321 
L 747.163636 288.493321 
L 747.163636 288.493321 
" clip-path="url(#pd81025001f)" style="fill: none; stroke: #ff7f0e; stroke-width: 1.5; stroke-linecap: square"/>
   </g>
   <g id="patch_3">
    <path d="M 108 320.4 
L 108 43.2 
" style="fill: none; stroke: #a9a9a9; stroke-width: 0.8; stroke-linejoin: miter; stroke-linecap: square"/>
   </g>
   <g id="patch_4">
    <path d="M 777.6 320.4 
L 777.6 43.2 
" style="fill: none"/>
   </g>
   <g id="patch_5">
    <path d="M 108 320.4 
L 777.6 320.4 
" style="fill: none; stroke: #a9a9a9; stroke-width: 0.8; stroke-linejoin: miter; stroke-linecap: square"/>
   </g>
   <g id="patch_6">
    <path d="M 108 43.2 
L 777.6 43.2 
" style="fill: none"/>
   </g>
   <g id="text_16">
    <!-- get_subscribe history -->
    <g style="fill: #a9a9a9" transform="translate(378.6075 37.2) scale(0.12 -0.12)">
     <defs>
      <path id="DejaVuSans-67" d="M 2906 1791 
Q 2906 2416 2648 2759 
Q 2391 3103 1925 3103 
Q 1463 3103 1205 2759 
Q 947 2416 947 1791 
Q 947 1169 1205 825 
Q 1463 481 1925 481 
Q 2391 481 2648 825 
Q 2906 1169 2906 1791 
z
M 3481 434 
Q 3481 -459 3084 -895 
Q 2688 -1331 1869 -1331 
Q 1566 -1331 1297 -1286 
Q 1028 -1241 775 -1147 
L 775 -588 
Q 1028 -725 1275 -790 
Q 1522 -856 1778 -856 
Q 2344 -856 2625 -561 
Q 2906 -266 2906 331 
L 2906 616 
Q 2728 306 2450 153 
Q 2172 0 1784 0 
Q 1141 0 747 490 
Q 353 981 353 1791 
Q 353 2603 747 3093 
Q 1141 3584 1784 3584 
Q 2172 3584 2450 3431 
Q 2728 3278 2906 2969 
L 2906 3500 
L 3481 3500 
L 3481 434 
z
" transform="scale(0.015625)"/>
      <path id="DejaVuSans-65" d="M 3597 1894 
L 3597 1613 
L 953 1613 
Q 991 1019 1311 708 
Q 1631 397 2203 397 
Q 2534 397 2845 478 
Q 3156 559 3463 722 
L 3463 178 
Q 3153 47 2828 -22 
Q 2503 -91 2169 -91 
Q 1331 -91 842 396 
Q 353 884 353 1716 
Q 353 2575 817 3079 
Q 1281 3584 2069 3584 
Q 2775 3584 3186 3129 
Q 3597 2675 3597 1894 
z
M 3022 2063 
Q 3016 2534 2758 2815 
Q 2500 3097 2075 3097 
Q 1594 3097 1305 2825 
Q 1016 2553 972 2059 
L 3022 2063 
z
" transform="scale(0.015625)"/>
      <path id="DejaVuSans-74" d="M 1172 4494 
L 1172 3500 
L 2356 3500 
L 2356 3053 
L 1172 3053 
L 1172 1153 
Q 1172 725 1289 603 
Q 1406 481 1766 481 
L 2356 481 
L 2356 0 
L 1766 0 
Q 1100 0 847 248 
Q 594 497 594 1153 
L 594 3053 
L 172 3053 
L 172 3500 
L 594 3500 
L 594 4494 
L 1172 4494 
z
" transform="scale(0.015625)"/>
      <path id="DejaVuSans-5f" d="M 3263 -1063 
L 3263 -1509 
L -63 -1509 
L -63 -1063 
L 3263 -1063 
z
" transform="scale(0.015625)"/>
      <path id="DejaVuSans-73" d="M 2834 3397 
L 2834 2853 
Q 2591 2978 2328 3040 
Q 2066 3103 1784 3103 
Q 1356 3103 1142 2972 
Q 928 2841 928 2578 
Q 928 2378 1081 2264 
Q 1234 2150 1697 2047 
L 1894 2003 
Q 2506 1872 2764 1633 
Q 3022 1394 3022 966 
Q 3022 478 2636 193 
Q 2250 -91 1575 -91 
Q 1294 -91 989 -36 
Q 684 19 347 128 
L 347 722 
Q 666 556 975 473 
Q 1284 391 1588 391 
Q 1994 391 2212 530 
Q 2431 669 2431 922 
Q 2431 1156 2273 1281 
Q 2116 1406 1581 1522 
L 1381 1569 
Q 847 1681 609 1914 
Q 372 2147 372 2553 
Q 372 3047 722 3315 
Q 1072 3584 1716 3584 
Q 2034 3584 2315 3537 
Q 2597 3491 2834 3397 
z
" transform="scale(0.015625)"/>
      <path id="DejaVuSans-75" d="M 544 1381 
L 544 3500 
L 1119 3500 
L 1119 1403 
Q 1119 906 1312 657 
Q 1506 409 1894 409 
Q 2359 409 2629 706 
Q 2900 1003 2900 1516 
L 2900 3500 
L 3475 3500 
L 3475 0 
L 2900 0 
L 2900 538 
Q 2691 219 2414 64 
Q 2138 -91 1772 -91 
Q 1169 -91 856 284 
Q 544 659 544 1381 
z
M 1991 3584 
L 1991 3584 
z
" transform="scale(0.015625)"/>
      <path id="DejaVuSans-62" d="M 3116 1747 
Q 3116 2381 2855 2742 
Q 2594 3103 2138 3103 
Q 1681 3103 1420 2742 
Q 1159 2381 1159 1747 
Q 1159 1113 1420 752 
Q 1681 391 2138 391 
Q 2594 391 2855 752 
Q 3116 1113 3116 1747 
z
M 1159 2969 
Q 1341 3281 1617 3432 
Q 1894 3584 2278 3584 
Q 2916 3584 3314 3078 
Q 3713 2572 3713 1747 
Q 3713 922 3314 415 
Q 2916 -91 2278 -91 
Q 1894 -91 1617 61 
Q 1341 213 1159 525 
L 1159 0 
L 581 0 
L 581 4863 
L 1159 4863 
L 1159 2969 
z
" transform="scale(0.015625)"/>
      <path id="DejaVuSans-63" d="M 3122 3366 
L 3122 2828 
Q 2878 2963 2633 3030 
Q 2388 3097 2138 3097 
Q 1578 3097 1268 2742 
Q 959 2388 959 1747 
Q 959 1106 1268 751 
Q 1578 397 2138 397 
Q 2388 397 2633 464 
Q 2878 531 3122 666 
L 3122 134 
Q 2881 22 2623 -34 
Q 2366 -91 2075 -91 
Q 1284 -91 818 406 
Q 353 903 353 1747 
Q 353 2603 823 3093 
Q 1294 3584 2113 3584 
Q 2378 3584 2631 3529 
Q 2884 3475 3122 3366 
z
" transform="scale(0.015625)"/>
      <path id="DejaVuSans-72" d="M 2631 2963 
Q 2534 3019 2420 3045 
Q 2306 3072 2169 3072 
Q 1681 3072 1420 2755 
Q 1159 2438 1159 1844 
L 1159 0 
L 581 0 
L 581 3500 
L 1159 3500 
L 1159 2956 
Q 1341 3275 1631 3429 
Q 1922 3584 2338 3584 
Q 2397 3584 2469 3576 
Q 2541 3569 2628 3553 
L 2631 2963 
z
" transform="scale(0.015625)"/>
      <path id="DejaVuSans-69" d="M 603 3500 
L 1178 3500 
L 1178 0 
L 603 0 
L 603 3500 
z
M 603 4863 
L 1178 4863 
L 1178 4134 
L 603 4134 
L 603 4863 
z
" transform="scale(0.015625)"/>
      <path id="DejaVuSans-20" transform="scale(0.015625)"/>
      <path id="DejaVuSans-68" d="M 3513 2113 
L 3513 0 
L 2938 0 
L 2938 2094 
Q 2938 2591 2744 2837 
Q 2550 3084 2163 3084 
Q 1697 3084 1428 2787 
Q 1159 2491 1159 1978 
L 1159 0 
L 581 0 
L 581 4863 
L 1159 4863 
L 1159 2956 
Q 1366 3272 1645 3428 
Q 1925 3584 2291 3584 
Q 2894 3584 3203 3211 
Q 3513 2838 3513 2113 
z
" transform="scale(0.015625)"/>
      <path id="DejaVuSans-6f" d="M 1959 3097 
Q 1497 3097 1228 2736 
Q 959 2375 959 1747 
Q 959 1119 1226 758 
Q 1494 397 1959 397 
Q 2419 397 2687 759 
Q 2956 1122 2956 1747 
Q 2956 2369 2687 2733 
Q 2419 3097 1959 3097 
z
M 1959 3584 
Q 2709 3584 3137 3096 
Q 3566 2609 3566 1747 
Q 3566 888 3137 398 
Q 2709 -91 1959 -91 
Q 1206 -91 779 398 
Q 353 888 353 1747 
Q 353 2609 779 3096 
Q 1206 3584 1959 3584 
z
" transform="scale(0.015625)"/>
      <path id="DejaVuSans-79" d="M 2059 -325 
Q 1816 -950 1584 -1140 
Q 1353 -1331 966 -1331 
L 506 -1331 
L 506 -850 
L 844 -850 
Q 1081 -850 1212 -737 
Q 1344 -625 1503 -206 
L 1606 56 
L 191 3500 
L 800 3500 
L 1894 763 
L 2988 3500 
L 3597 3500 
L 2059 -325 
z
" transform="scale(0.015625)"/>
     </defs>
     <use xlink:href="#DejaVuSans-67"/>
     <use xlink:href="#DejaVuSans-65" transform="translate(63.476562 0)"/>
     <use xlink:href="#DejaVuSans-74" transform="translate(125 0)"/>
     <use xlink:href="#DejaVuSans-5f" transform="translate(164.208984 0)"/>
     <use xlink:href="#DejaVuSans-73" transform="translate(214.208984 0)"/>
     <use xlink:href="#DejaVuSans-75" transform="translate(266.308594 0)"/>
     <use xlink:href="#DejaVuSans-62" transform="translate(329.6875 0)"/>
     <use xlink:href="#DejaVuSans-73" transform="translate(393.164062 0)"/>
     <use xlink:href="#DejaVuSans-63" transform="translate(445.263672 0)"/>
     <use xlink:href="#DejaVuSans-72" transform="translate(500.244141 0)"/>
     <use xlink:href="#DejaVuSans-69" transform="translate(541.357422 0)"/>
     <use xlink:href="#DejaVuSans-62" transform="translate(569.140625 0)"/>
     <use xlink:href="#DejaVuSans-65" transform="translate(632.617188 0)"/>
     <use xlink:href="#DejaVuSans-20" transform="translate(694.140625 0)"/>
     <use xlink:href="#DejaVuSans-68" transform="translate(725.927734 0)"/>
     <use xlink:href="#DejaVuSans-69" transform="translate(789.306641 0)"/>
     <use xlink:href="#DejaVuSans-73" transform="translate(817.089844 0)"/>
     <use xlink:href="#DejaVuSans-74" transform="translate(869.189453 0)"/>
     <use xlink:href="#DejaVuSans-6f" transform="translate(908.398438 0)"/>
     <use xlink:href="#DejaVuSans-72" transform="translate(969.580078 0)"/>
     <use xlink:href="#DejaVuSans-79" transform="translate(1010.693359 0)"/>
    </g>
   </g>
   <g id="legend_1">
    <g id="line2d_33">
     <path d="M 815.08 328.498438 
L 825.08 328.498438 
L 835.08 328.498438 
" style="fill: none; stroke: #1f77b4; stroke-width: 1.5; stroke-linecap: square"/>
    </g>
    <g id="text_17">
     <!-- star -->
     <g style="fill: #a9a9a9" transform="translate(843.08 331.998438) scale(0.1 -0.1)">
      <defs>
       <path id="DejaVuSans-61" d="M 2194 1759 
Q 1497 1759 1228 1600 
Q 959 1441 959 1056 
Q 959 750 1161 570 
Q 1363 391 1709 391 
Q 2188 391 2477 730 
Q 2766 1069 2766 1631 
L 2766 1759 
L 2194 1759 
z
M 3341 1997 
L 3341 0 
L 2766 0 
L 2766 531 
Q 2569 213 2275 61 
Q 1981 -91 1556 -91 
Q 1019 -91 701 211 
Q 384 513 384 1019 
Q 384 1609 779 1909 
Q 1175 2209 1959 2209 
L 2766 2209 
L 2766 2266 
Q 2766 2663 2505 2880 
Q 2244 3097 1772 3097 
Q 1472 3097 1187 3025 
Q 903 2953 641 2809 
L 641 3341 
Q 956 3463 1253 3523 
Q 1550 3584 1831 3584 
Q 2591 3584 2966 3190 
Q 3341 2797 3341 1997 
z
" transform="scale(0.015625)"/>
      </defs>
      <use xlink:href="#DejaVuSans-73"/>
      <use xlink:href="#DejaVuSans-74" transform="translate(52.099609 0)"/>
      <use xlink:href="#DejaVuSans-61" transform="translate(91.308594 0)"/>
      <use xlink:href="#DejaVuSans-72" transform="translate(152.587891 0)"/>
     </g>
    </g>
    <g id="line2d_34">
     <path d="M 815.08 343.176562 
L 825.08 343.176562 
L 835.08 343.176562 
" style="fill: none; stroke: #ff7f0e; stroke-width: 1.5; stroke-linecap: square"/>
    </g>
    <g id="text_18">
     <!-- fork -->
     <g style="fill: #a9a9a9" transform="translate(843.08 346.676562) scale(0.1 -0.1)">
      <defs>
       <path id="DejaVuSans-66" d="M 2375 4863 
L 2375 4384 
L 1825 4384 
Q 1516 4384 1395 4259 
Q 1275 4134 1275 3809 
L 1275 3500 
L 2222 3500 
L 2222 3053 
L 1275 3053 
L 1275 0 
L 697 0 
L 697 3053 
L 147 3053 
L 147 3500 
L 697 3500 
L 697 3744 
Q 697 4328 969 4595 
Q 1241 4863 1831 4863 
L 2375 4863 
z
" transform="scale(0.015625)"/>
       <path id="DejaVuSans-6b" d="M 581 4863 
L 1159 4863 
L 1159 1991 
L 2875 3500 
L 3609 3500 
L 1753 1863 
L 3688 0 
L 2938 0 
L 1159 1709 
L 1159 0 
L 581 0 
L 581 4863 
z
" transform="scale(0.015625)"/>
      </defs>
      <use xlink:href="#DejaVuSans-66"/>
      <use xlink:href="#DejaVuSans-6f" transform="translate(35.205078 0)"/>
      <use xlink:href="#DejaVuSans-72" transform="translate(96.386719 0)"/>
      <use xlink:href="#DejaVuSans-6b" transform="translate(137.5 0)"/>
     </g>
    </g>
   </g>
  </g>
 </g>
 <defs>
  <clipPath id="pd81025001f">
   <rect x="108" y="43.2" width="669.6" height="277.2"/>
  </clipPath>
 </defs>
</svg>
